<svg style="vertical-align: -25%; height: 1.25rem" viewBox="0 0 90 90" version="1.1" xmlns="http://www.w3.org/2000/svg"><g transform="translate(-99.654 -68.439)"><g transform="matrix(.95657 0 0 .95657 8.2583 6.9028)"><g fill="#1d3557"><g transform="matrix(-.069981 .069981 -.069981 -.069981 175.81 90.747)"><path d="m300.9 311.5c0 78.2-63.4 141.6-141.6 141.6s-141.6-63.4-141.6-141.6 63.4-141.6 141.6-141.6 141.6 63.4 141.6 141.6z" fill-opacity=".5"/></g><g transform="matrix(-.069981 .069981 -.069981 -.069981 202.89 136.99)"><path d="m389.4 159.2c0 78.2-63.4 141.6-141.6 141.6s-141.6-63.4-141.6-141.6 63.4-141.6 141.6-141.6 141.6 63.4 141.6 141.6z" fill-opacity=".5"/></g><g transform="matrix(-.12391 .12391 -.12391 -.12391 229.33 194.95)"><path transform="matrix(.8516 0 0 .8516 -7.957 658.2)" d="m267.7 181c0 51.88-42.06 93.94-93.94 93.94s-93.94-42.06-93.94-93.94 42.06-93.94 93.94-93.94 93.94 42.06 93.94 93.94z" fill-opacity="1"/></g><g transform="matrix(-.069981 .069981 -.069981 -.069981 177.54 99.252)"><path d="m477.9 159.2c0 78.2-63.4 141.6-141.6 141.6s-141.6-63.4-141.6-141.6 63.4-141.6 141.6-141.6 141.6 63.4 141.6 141.6z" fill-opacity=".2"/></g><g transform="matrix(-.069981 .069981 -.069981 -.069981 209.08 67.709)"><path d="m477.9 159.2c0 78.2-63.4 141.6-141.6 141.6s-141.6-63.4-141.6-141.6 63.4-141.6 141.6-141.6 141.6 63.4 141.6 141.6z" fill-opacity="1"/></g><g transform="matrix(-.12391 .12391 -.12391 -.12391 229.33 226.5)"><path transform="matrix(.8516 0 0 .8516 -7.957 658.2)" d="m267.7 181c0 51.88-42.06 93.94-93.94 93.94s-93.94-42.06-93.94-93.94 42.06-93.94 93.94-93.94 93.94 42.06 93.94 93.94z" fill-opacity="1"/></g><g transform="matrix(-.069981 .069981 -.069981 -.069981 139.8 73.902)"><path d="m389.4 159.2c0 78.2-63.4 141.6-141.6 141.6s-141.6-63.4-141.6-141.6 63.4-141.6 141.6-141.6 141.6 63.4 141.6 141.6z" fill-opacity=".2"/></g><g transform="matrix(-.069981 .069981 -.069981 -.069981 175.81 153.83)"><path d="m300.9 311.5c0 78.2-63.4 141.6-141.6 141.6s-141.6-63.4-141.6-141.6 63.4-141.6 141.6-141.6 141.6 63.4 141.6 141.6z" fill-opacity="1"/></g></g><path d="m164.5 121.55c-5.4725-5.4725-5.4725-14.346 0-19.819 5.4725-5.4725 14.346-5.4725 19.819 0 5.4725 5.4725 5.4725 14.346 0 19.819-5.4725 5.4725-14.346 5.4725-19.819 0z" fill="#1d3557" fill-opacity=".2"/></g></g></svg>